<svg width="303" height="27" viewBox="0 0 101 9" fill="none" xmlns="http://www.w3.org/2000/svg">
<path d="M0.540009 0.612H3.55201C4.47201 0.612 5.27601 0.78 5.96401 1.116C6.65201 1.452 7.18001 1.936 7.54801 2.568C7.92401 3.192 8.11201 3.924 8.11201 4.764C8.11201 6.156 7.70401 7.212 6.88801 7.932C6.07201 8.644 4.94001 9 3.49201 9H0.540009V0.612ZM3.67201 7.212C4.40001 7.212 4.95601 6.992 5.34001 6.552C5.73201 6.112 5.92801 5.516 5.92801 4.764C5.92801 4.076 5.73201 3.512 5.34001 3.072C4.95601 2.624 4.42401 2.4 3.74401 2.4H2.66401V7.212H3.67201Z" fill="url(#paint0_linear_2:4)"/>
<path d="M0.540009 0.612H3.55201C4.47201 0.612 5.27601 0.78 5.96401 1.116C6.65201 1.452 7.18001 1.936 7.54801 2.568C7.92401 3.192 8.11201 3.924 8.11201 4.764C8.11201 6.156 7.70401 7.212 6.88801 7.932C6.07201 8.644 4.94001 9 3.49201 9H0.540009V0.612ZM3.67201 7.212C4.40001 7.212 4.95601 6.992 5.34001 6.552C5.73201 6.112 5.92801 5.516 5.92801 4.764C5.92801 4.076 5.73201 3.512 5.34001 3.072C4.95601 2.624 4.42401 2.4 3.74401 2.4H2.66401V7.212H3.67201Z" fill="#FF0000" fill-opacity="0.2"/>
<path d="M8.95407 0.612H11.0781V9H8.95407V0.612Z" fill="url(#paint1_linear_2:4)"/>
<path d="M8.95407 0.612H11.0781V9H8.95407V0.612Z" fill="#FF0000" fill-opacity="0.2"/>
<path d="M11.9133 0.612H14.1813L16.3173 6.192L18.4533 0.612H20.7093L17.3613 9H15.2733L11.9133 0.612Z" fill="url(#paint2_linear_2:4)"/>
<path d="M11.9133 0.612H14.1813L16.3173 6.192L18.4533 0.612H20.7093L17.3613 9H15.2733L11.9133 0.612Z" fill="#FF0000" fill-opacity="0.2"/>
<path d="M21.5517 0.612H27.5037V2.4H23.6757V3.972H26.4717V5.64H23.6757V7.212H27.5037V9H21.5517V0.612Z" fill="url(#paint3_linear_2:4)"/>
<path d="M21.5517 0.612H27.5037V2.4H23.6757V3.972H26.4717V5.64H23.6757V7.212H27.5037V9H21.5517V0.612Z" fill="#FF0000" fill-opacity="0.2"/>
<path d="M28.3486 0.612H32.1166C33.1006 0.612 33.8686 0.86 34.4206 1.356C34.9806 1.852 35.2606 2.564 35.2606 3.492C35.2606 4.116 35.1246 4.648 34.8526 5.088C34.5806 5.528 34.1966 5.856 33.7006 6.072L35.1886 9H33.0046L31.6726 6.372H30.4726V9H28.3486V0.612ZM31.7446 4.584C32.1686 4.584 32.4966 4.504 32.7286 4.344C32.9606 4.176 33.0766 3.892 33.0766 3.492C33.0766 3.076 32.9606 2.792 32.7286 2.64C32.5046 2.48 32.1766 2.4 31.7446 2.4H30.4726V4.584H31.7446Z" fill="url(#paint4_linear_2:4)"/>
<path d="M28.3486 0.612H32.1166C33.1006 0.612 33.8686 0.86 34.4206 1.356C34.9806 1.852 35.2606 2.564 35.2606 3.492C35.2606 4.116 35.1246 4.648 34.8526 5.088C34.5806 5.528 34.1966 5.856 33.7006 6.072L35.1886 9H33.0046L31.6726 6.372H30.4726V9H28.3486V0.612ZM31.7446 4.584C32.1686 4.584 32.4966 4.504 32.7286 4.344C32.9606 4.176 33.0766 3.892 33.0766 3.492C33.0766 3.076 32.9606 2.792 32.7286 2.64C32.5046 2.48 32.1766 2.4 31.7446 2.4H30.4726V4.584H31.7446Z" fill="#FF0000" fill-opacity="0.2"/>
<path d="M37.6285 2.4H35.2645V0.612H42.1285V2.4H39.7525V9H37.6285V2.4Z" fill="url(#paint5_linear_2:4)"/>
<path d="M37.6285 2.4H35.2645V0.612H42.1285V2.4H39.7525V9H37.6285V2.4Z" fill="#FF0000" fill-opacity="0.2"/>
<path d="M42.7861 0.612H44.9101V9H42.7861V0.612Z" fill="url(#paint6_linear_2:4)"/>
<path d="M42.7861 0.612H44.9101V9H42.7861V0.612Z" fill="#FF0000" fill-opacity="0.2"/>
<path d="M45.9853 0.612H48.9973C49.9173 0.612 50.7213 0.78 51.4093 1.116C52.0973 1.452 52.6253 1.936 52.9933 2.568C53.3693 3.192 53.5573 3.924 53.5573 4.764C53.5573 6.156 53.1493 7.212 52.3333 7.932C51.5173 8.644 50.3853 9 48.9373 9H45.9853V0.612ZM49.1173 7.212C49.8453 7.212 50.4013 6.992 50.7853 6.552C51.1773 6.112 51.3733 5.516 51.3733 4.764C51.3733 4.076 51.1773 3.512 50.7853 3.072C50.4013 2.624 49.8693 2.4 49.1893 2.4H48.1093V7.212H49.1173Z" fill="url(#paint7_linear_2:4)"/>
<path d="M45.9853 0.612H48.9973C49.9173 0.612 50.7213 0.78 51.4093 1.116C52.0973 1.452 52.6253 1.936 52.9933 2.568C53.3693 3.192 53.5573 3.924 53.5573 4.764C53.5573 6.156 53.1493 7.212 52.3333 7.932C51.5173 8.644 50.3853 9 48.9373 9H45.9853V0.612ZM49.1173 7.212C49.8453 7.212 50.4013 6.992 50.7853 6.552C51.1773 6.112 51.3733 5.516 51.3733 4.764C51.3733 4.076 51.1773 3.512 50.7853 3.072C50.4013 2.624 49.8693 2.4 49.1893 2.4H48.1093V7.212H49.1173Z" fill="#FF0000" fill-opacity="0.2"/>
<path d="M56.7342 0.612H58.8222L62.1702 9H59.9982L59.3262 7.272H56.2302L55.5582 9H53.3742L56.7342 0.612ZM58.7982 5.64L57.7782 2.82L56.7462 5.64H58.7982Z" fill="url(#paint8_linear_2:4)"/>
<path d="M56.7342 0.612H58.8222L62.1702 9H59.9982L59.3262 7.272H56.2302L55.5582 9H53.3742L56.7342 0.612ZM58.7982 5.64L57.7782 2.82L56.7462 5.64H58.7982Z" fill="#FF0000" fill-opacity="0.2"/>
<path d="M62.708 0.612H64.748L67.172 5.808L69.608 0.612H71.636V9H69.656V4.788L67.652 9H66.692L64.7 4.788V9H62.708V0.612Z" fill="url(#paint9_linear_2:4)"/>
<path d="M62.708 0.612H64.748L67.172 5.808L69.608 0.612H71.636V9H69.656V4.788L67.652 9H66.692L64.7 4.788V9H62.708V0.612Z" fill="#FF0000" fill-opacity="0.2"/>
<path d="M72.7158 0.612H78.6678V2.4H74.8398V3.972H77.6358V5.64H74.8398V7.212H78.6678V9H72.7158V0.612Z" fill="url(#paint10_linear_2:4)"/>
<path d="M72.7158 0.612H78.6678V2.4H74.8398V3.972H77.6358V5.64H74.8398V7.212H78.6678V9H72.7158V0.612Z" fill="#FF0000" fill-opacity="0.2"/>
<path d="M79.5127 0.612H81.6127L84.6967 5.604V0.612H86.8207V9H84.7327L81.6367 3.996V9H79.5127V0.612Z" fill="url(#paint11_linear_2:4)"/>
<path d="M79.5127 0.612H81.6127L84.6967 5.604V0.612H86.8207V9H84.7327L81.6367 3.996V9H79.5127V0.612Z" fill="#FF0000" fill-opacity="0.2"/>
<path d="M89.8473 2.4H87.4833V0.612H94.3473V2.4H91.9713V9H89.8473V2.4Z" fill="url(#paint12_linear_2:4)"/>
<path d="M89.8473 2.4H87.4833V0.612H94.3473V2.4H91.9713V9H89.8473V2.4Z" fill="#FF0000" fill-opacity="0.2"/>
<path d="M95.0049 0.612H100.957V2.4H97.1289V3.972H99.9249V5.64H97.1289V7.212H100.957V9H95.0049V0.612Z" fill="url(#paint13_linear_2:4)"/>
<path d="M95.0049 0.612H100.957V2.4H97.1289V3.972H99.9249V5.64H97.1289V7.212H100.957V9H95.0049V0.612Z" fill="#FF0000" fill-opacity="0.2"/>
<defs>
<linearGradient id="paint0_linear_2:4" x1="101" y1="5.00001" x2="1" y2="5.00001" gradientUnits="userSpaceOnUse">
<stop stop-color="#FF00B8"/>
<stop offset="1" stop-color="#AD00FF"/>
</linearGradient>
<linearGradient id="paint1_linear_2:4" x1="101" y1="5.00001" x2="1" y2="5.00001" gradientUnits="userSpaceOnUse">
<stop stop-color="#FF00B8"/>
<stop offset="1" stop-color="#AD00FF"/>
</linearGradient>
<linearGradient id="paint2_linear_2:4" x1="101" y1="5.00001" x2="1" y2="5.00001" gradientUnits="userSpaceOnUse">
<stop stop-color="#FF00B8"/>
<stop offset="1" stop-color="#AD00FF"/>
</linearGradient>
<linearGradient id="paint3_linear_2:4" x1="101" y1="5.00001" x2="1" y2="5.00001" gradientUnits="userSpaceOnUse">
<stop stop-color="#FF00B8"/>
<stop offset="1" stop-color="#AD00FF"/>
</linearGradient>
<linearGradient id="paint4_linear_2:4" x1="101" y1="5.00001" x2="1" y2="5.00001" gradientUnits="userSpaceOnUse">
<stop stop-color="#FF00B8"/>
<stop offset="1" stop-color="#AD00FF"/>
</linearGradient>
<linearGradient id="paint5_linear_2:4" x1="101" y1="5.00001" x2="1" y2="5.00001" gradientUnits="userSpaceOnUse">
<stop stop-color="#FF00B8"/>
<stop offset="1" stop-color="#AD00FF"/>
</linearGradient>
<linearGradient id="paint6_linear_2:4" x1="101" y1="5.00001" x2="1" y2="5.00001" gradientUnits="userSpaceOnUse">
<stop stop-color="#FF00B8"/>
<stop offset="1" stop-color="#AD00FF"/>
</linearGradient>
<linearGradient id="paint7_linear_2:4" x1="101" y1="5.00001" x2="1" y2="5.00001" gradientUnits="userSpaceOnUse">
<stop stop-color="#FF00B8"/>
<stop offset="1" stop-color="#AD00FF"/>
</linearGradient>
<linearGradient id="paint8_linear_2:4" x1="101" y1="5.00001" x2="1" y2="5.00001" gradientUnits="userSpaceOnUse">
<stop stop-color="#FF00B8"/>
<stop offset="1" stop-color="#AD00FF"/>
</linearGradient>
<linearGradient id="paint9_linear_2:4" x1="101" y1="5.00001" x2="1" y2="5.00001" gradientUnits="userSpaceOnUse">
<stop stop-color="#FF00B8"/>
<stop offset="1" stop-color="#AD00FF"/>
</linearGradient>
<linearGradient id="paint10_linear_2:4" x1="101" y1="5.00001" x2="1" y2="5.00001" gradientUnits="userSpaceOnUse">
<stop stop-color="#FF00B8"/>
<stop offset="1" stop-color="#AD00FF"/>
</linearGradient>
<linearGradient id="paint11_linear_2:4" x1="101" y1="5.00001" x2="1" y2="5.00001" gradientUnits="userSpaceOnUse">
<stop stop-color="#FF00B8"/>
<stop offset="1" stop-color="#AD00FF"/>
</linearGradient>
<linearGradient id="paint12_linear_2:4" x1="101" y1="5.00001" x2="1" y2="5.00001" gradientUnits="userSpaceOnUse">
<stop stop-color="#FF00B8"/>
<stop offset="1" stop-color="#AD00FF"/>
</linearGradient>
<linearGradient id="paint13_linear_2:4" x1="101" y1="5.00001" x2="1" y2="5.00001" gradientUnits="userSpaceOnUse">
<stop stop-color="#FF00B8"/>
<stop offset="1" stop-color="#AD00FF"/>
</linearGradient>
</defs>
</svg>
